<?xml version="1.0" standalone="yes"?>
<svg xmlns="http://www.w3.org/2000/svg" width="1206" height="1182">
<path style="fill:#fcfcfc; stroke:none;" d="M0 0L0 1182L3 1182C3.28541 1173.18 10.9095 1168.47 15.9144 1161.96C28.6231 1145.42 44.7036 1131.4 59.2508 1116.57C81.0121 1094.39 105.614 1075.16 130.174 1056.25C145.758 1044.25 162.513 1033.63 176.402 1019.5C196.314 999.244 212.81 974.136 224 948C217.793 946.656 211.249 949.196 205 949.831C190.013 951.354 175.003 953.562 160 955.174C154.335 955.782 142.635 960.735 138.89 953.856C136.273 949.048 143.429 945.895 147 945.174C160.034 942.543 172.919 939.202 186 936.754C197.596 934.583 209.688 933.132 221 929.66C224.041 928.726 228.946 928.658 231.297 926.397C235.558 922.301 233.548 914.232 234.464 909C236.84 895.431 236.605 881.674 238.285 868C239.011 862.085 241.609 851.995 239.486 846.344C237.694 841.574 227.284 842.365 223 841.615C218.335 840.798 213.669 841.374 209 840.816C196.133 839.276 183.049 838.005 170 838C165.486 837.998 148.663 839.895 150.752 831.09C152.518 823.644 166.575 826 172 826C188.108 826 203.97 827.771 220 829.086C225.912 829.57 231.954 831.964 237.941 830.772C243.845 829.596 242.559 817.812 242.911 813C243.812 800.713 243.947 788.24 245.171 776C245.91 768.603 248.614 760.491 246.682 753.015C244.457 744.403 228.188 741.378 221 738.783C213.566 736.099 206.443 732.569 199 729.949C181.317 723.725 163.213 718.687 146.17 710.729C138.635 707.211 130.596 705.09 123.005 701.728C119.987 700.392 116.475 697.879 117.662 694.058C118.802 690.39 122.765 689.927 126 690.472C133.669 691.766 140.597 696.194 148 698.404C171.787 705.507 194.619 715.719 218 723.949C224.035 726.073 229.833 728.791 236 730.55C238.449 731.249 241.228 732.324 243.736 731.242C250.611 728.276 248.13 712.922 247.985 707C247.357 681.369 247 655.702 247 630C239.393 626.773 232.835 620.401 226 615.799C203.027 600.328 181.074 583.913 159.285 566.796C152.941 561.811 146.088 557.535 140.039 552.127C137.854 550.174 134.016 547.328 134.167 544.012C134.304 541.036 137.555 539.113 140.001 538.148C146.468 535.597 155.165 537 162 537C178.104 537 193.958 538.967 210 539.791C217.81 540.192 226.093 538.987 234 539C239.706 539.009 245.294 540.156 250.999 539.985C253.235 539.918 256.265 539.934 257.382 537.566C258.617 534.948 257.033 531.601 256.514 529C255.495 523.899 255.504 518.203 255.086 513C253.316 490.984 252.741 469.128 253.004 447C253.633 394.138 257.016 341.355 264.728 289C267.487 270.275 268.901 252.329 273.982 234C278.703 216.97 282.327 199.361 285.576 182C286.995 174.423 291.927 161.601 298.954 157.614C314.683 148.688 336.249 158.073 352 162.974C365.953 167.316 378.38 175.751 391 183.074C401.202 188.995 411.417 194.429 421.014 201.481C443.599 218.075 463.678 240.739 481.475 262.17C491.329 274.035 499.312 288.075 507.291 301.285C509.45 304.86 513.429 313.978 518.105 314.468C522.376 314.916 526.982 310.76 531 309.598C542.046 306.405 554.556 304.277 566 303.17C602.277 299.659 638.678 301.447 675 303.039C687.864 303.603 700.536 307.472 713 310.349C716.947 311.26 723.975 314.859 727.79 312.933C733.51 310.045 736.156 300.365 739.424 295.286C747.88 282.145 757.22 268.843 766.945 256.665C783.783 235.581 804.017 216.144 825.714 200.208C832.226 195.426 838.067 189.59 844.961 185.364C851.721 181.221 859.008 178.641 866 175.055C886.789 164.391 912.095 154.895 936 157.17C941.831 157.725 948.96 157.692 953.985 161.029C959.515 164.701 960.959 171.34 963.752 177C970.516 190.704 973.673 208.851 975.37 224C976.019 229.791 975.433 235.154 976.6 241C982.246 269.284 982.312 298.304 983.015 327C983.723 355.923 984.696 384.999 983.985 414C983.853 419.386 982.457 424.637 982.089 430C981.225 442.608 982.051 455.453 982.911 468C984.104 485.422 981.21 502.666 981.004 520C980.951 524.473 979.133 534.742 982.028 538.397C983.913 540.777 988.362 539.949 991 540.015C998.021 540.19 1004.93 541 1012 541C1037.82 541 1064.15 538.015 1090 540.093C1093.73 540.393 1097.26 541.674 1101 542C1100.99 559.857 1086.9 569.239 1074.17 579.583C1057.27 593.317 1039.49 605.879 1022 618.845C1015.28 623.826 1005.95 628.363 1000.32 634.468C997.174 637.878 998.09 642.734 997.985 647C997.878 651.362 997.042 655.623 997 660C996.888 671.644 995.549 683.369 995.039 695C994.794 700.611 995.527 706.378 994.871 711.961C994.505 715.08 993.211 717.828 993 721C1005.12 720.195 1016.94 713.748 1028 709.142C1045.45 701.871 1063.88 694.395 1082 689.091C1089.15 686.998 1095.83 683.464 1103 681.352C1105.64 680.575 1109.1 679.733 1110.97 682.438C1114.66 687.773 1108.1 691.778 1104 693.304C1089.61 698.654 1075.38 704.366 1061.01 709.786C1044.27 716.105 1027.63 722.959 1011 729.552C1003.65 732.463 992.761 735.587 987.938 742.379C985.248 746.168 985.365 752.541 984.729 757C983.202 767.715 980.936 778.274 979.424 789C978.396 796.297 977.817 803.754 976.536 811C975.997 814.053 974.369 817.783 975.618 820.852C978.07 826.873 991.974 823.002 997 823C1019.98 822.991 1042.22 817.229 1065 815.075C1070.78 814.528 1086.46 808.783 1089.38 816.21C1091.93 822.7 1082.17 824.654 1078 825.73C1063.46 829.477 1047.95 832.881 1033 833.911C1019.32 834.852 1005.7 837.328 992 838C987.273 838.232 977.007 837.495 973.318 840.603C968.978 844.259 969.389 856.664 968.83 862C967.474 874.937 964.334 888.131 962.246 901C961.225 907.296 959.03 914.487 960.148 920.891C960.782 924.522 963.909 924.922 967.001 925.73C972.608 927.195 978.363 928.002 984 929.336C1009.16 935.292 1034.97 937.292 1060 943.258C1066.72 944.861 1073.41 945.168 1079.99 947.45C1082.78 948.422 1085.83 949.629 1086.26 953.015C1086.74 956.838 1083.27 958.719 1080 958.927C1072.93 959.375 1065 957.584 1058 956.579C1032.97 952.985 1007.6 950.265 983 944.127C977.311 942.707 971.806 942.084 966 941.429C963.108 941.103 959.958 941.046 958.603 944.148C955.444 951.381 958.544 963.513 959.575 971C962.173 989.861 962.928 1008.42 967.112 1027C978.546 1077.79 984 1129.9 984 1182L1206 1182L1206 0L0 0z"/>
<path style="fill:#0f0e0e; stroke:none;" d="M247 630C247 655.697 246.839 681.375 247.961 707C248.225 713.033 250.493 728.653 242.87 731.154C240.632 731.888 238.146 730.88 236 730.266C229.842 728.505 224.07 725.624 218 723.618C194.102 715.721 171.13 705.183 147 697.855C139.899 695.698 133.461 691.35 126 690.302C122.577 689.821 118.271 689.977 117.337 694.058C116.361 698.322 119.492 700.714 123.005 702.123C130.735 705.225 138.612 707.629 146.17 711.14C162.89 718.91 180.665 723.847 198 729.949C205.778 732.687 213.215 736.373 221 739.142C228.593 741.842 244.36 744.866 246.682 754.004C248.433 760.894 245.851 768.193 245.171 775C243.911 787.602 244.053 800.367 242.83 813C242.301 818.474 243.948 829.479 236.981 830.771C229.76 832.11 220.283 829.145 213 828.286C199.425 826.684 185.679 826 172 826C166.521 826 153.139 823.566 150.623 830.188C146.945 839.865 164.23 837.998 169 838C182.049 838.005 195.133 839.276 208 840.816C213.02 841.416 217.984 840.869 223 841.804C227.802 842.699 237.582 841.512 239.482 847.189C241.364 852.811 238.792 862.151 238.166 868C236.736 881.355 236.78 894.772 234.464 908C233.467 913.69 235.603 922.143 230.581 926.397C228.316 928.316 224.751 928.26 222 929.039C213.681 931.397 205.592 933.08 197 934.089C181.165 935.951 165.689 941.831 150 944.564C145.891 945.28 136.275 946.495 137.89 952.946C139.931 961.094 153.766 956.38 159 955.464C170.136 953.514 181.765 953.438 193 951.704C202.806 950.19 214.087 946.899 224 948C208.895 973.018 197.134 998.87 175.624 1019.5C161.536 1033.01 145.638 1043.8 130.174 1055.55C105.598 1074.24 80.6993 1093.52 59.2508 1115.84C44.5804 1131.12 28.3151 1145.22 15.1713 1161.96C9.95208 1168.61 3.10697 1172.95 3 1182L33 1182C36.7755 1182 42.2379 1182.97 45.625 1180.99C49.6376 1178.64 51.6504 1173.59 54.5494 1170.18C59.5159 1164.34 65.3449 1158.87 70.5139 1153.13C84.5005 1137.59 99.4806 1123.19 115.17 1109.4C124.607 1101.1 134.912 1094.48 144.91 1086.96C161.542 1074.44 178.237 1061.93 194.985 1049.49C207.725 1040.03 222.354 1029.8 231.961 1016.96C243.555 1001.47 250.066 985.085 256.316 967C258.465 960.782 260.814 954.36 262.575 948C263.594 944.317 263.929 940.283 267.147 937.769C271.641 934.258 278.597 934.525 284 933.728C295.865 931.98 308.321 930.494 320 927.985C355.225 920.418 390.675 915.435 426 908.371C435.928 906.386 446.282 905.67 456 902.652C461.835 900.84 466.407 897.151 472 895C470.936 888.485 465.558 888.976 460 889.001C448.653 889.051 437.157 890.563 426 892.576C402.205 896.867 378.816 901.735 355 905.916C342.541 908.103 330.325 910.846 317.985 913.37C314.159 914.153 310.331 913.845 306.576 915.001C297.589 917.767 287.342 918.423 278 919.089C273.986 919.375 269.684 920.575 267.742 915.941C264.36 907.873 269.286 894.359 270.424 886C271.103 881.007 270.617 875.976 271.29 871.001C271.806 867.192 273.493 863.75 274.035 859.961C274.526 856.534 274.02 850.184 276.603 847.603C278.479 845.73 281.601 845.975 284 846.301C290.164 847.137 295.729 847.971 302 848.001C311.635 848.047 321.44 850.461 331 851.718C341.24 853.065 351.864 853.6 362 855.259C370.344 856.625 378.449 858.941 387 858.999C398.312 859.076 409.551 862.706 421 862.985C430.009 863.206 435.705 862.166 436 852C433.2 851.092 430.738 849.334 427.91 848.557C416.684 845.472 404.545 845.223 393.039 843.871C369.176 841.068 344.973 838.23 321 835.286C310.016 833.937 298.953 834.349 288 832.589C284.558 832.037 280.296 832.116 277.148 830.486C272.154 827.9 274 818.663 274 814C274 800.713 271.862 787.297 273.104 774C273.545 769.285 275.409 762.668 281.005 762.242C285.724 761.882 290.771 764.784 295 766.504C304.015 770.17 312.97 774.022 322 777.691C338.867 784.545 355.899 791.455 373 797.675C385.416 802.191 398.526 805.621 410.576 811.086C422.795 816.627 436.706 821.588 450 823.726C453.405 824.274 459.523 826.994 462.663 824.961C467.905 821.565 458.484 816.076 455.996 814.738C444.494 808.551 431.877 804.891 420.039 799.555C403.793 792.231 386.637 786.668 370 780.174C352.624 773.393 335.546 766.042 318 759.631C308.603 756.198 299.335 752.513 290 749.049C284.909 747.161 280.492 744.55 275 744C273.528 732.349 274.273 720.723 273.985 709C273.732 698.663 272.983 688.396 273 678C273.008 672.958 273.738 668.024 274.015 663.001C274.112 661.246 274.068 658.247 276.148 657.527C278.268 656.794 281.301 659.508 283.015 660.446C289.318 663.898 295.257 667.723 301.001 672.059C311.774 680.19 323.679 686.635 334.715 694.389C345.766 702.154 356.131 711.093 368.13 717.406C378.581 722.904 394.469 720 406 720C425.682 720 445.392 719.001 465 719C476.481 718.999 489.707 720.833 501 718.772C507.133 717.652 510.44 711.402 514.409 707.209C525.504 695.49 532.666 681.528 541.32 668.039C547.618 658.224 554.553 648.861 560.914 638.999C564.031 634.167 566.948 627.466 571.275 623.637C575.72 619.704 582.455 618.543 588 617C602.712 612.906 619.718 610.643 635 612.171C640.036 612.674 644.974 614.073 650 614.714C656.78 615.58 664.918 615.551 670.675 619.843C675.918 623.751 678.124 630.688 681.837 635.83C686.576 642.393 689.886 649.656 694.285 656.335C702.504 668.814 711.244 681.475 720.499 693.286C724.788 698.759 729.481 707.06 735.456 710.826C738.69 712.864 744.278 712.894 748 712.985C755.738 713.175 763.292 713.383 771 713.911C792.644 715.393 814.273 716 836 716C844.868 716 856.472 717.972 865 715.451C873.684 712.885 881.723 706.273 889 701.167C899.501 693.797 910.057 686.548 920.17 678.58C924.466 675.195 929.432 673.116 934 670.165C941.233 665.493 948.148 660.096 956 656.495C959.073 655.086 965.073 649.651 968.397 652.647C971.359 655.318 970.03 662.541 969.576 666C968.187 676.573 967.183 687.358 966.17 698C965.513 704.899 964.407 711.195 963.258 718C962.569 722.081 963.128 726.313 960.436 729.816C957.102 734.152 951.708 735.474 947 737.664C936.238 742.671 925.205 746.889 914 750.759C907.854 752.882 902.092 756.127 895.996 758.41C868.008 768.892 839.991 779.544 812 789.873C797.002 795.408 781.981 801.599 767.004 807.329C762.186 809.172 757.222 814.184 759.607 819.852C761.579 824.539 767.48 822.425 771 821.214C782.043 817.413 792.987 813.33 804 809.46C833.603 799.056 862.593 786.901 892 775.974C900.578 772.786 909.434 770.665 918 767.471C926.9 764.152 935.943 761.269 944.83 757.939C947.907 756.786 952.253 753.604 955.258 756.607C957.769 759.118 956.991 763.868 956.576 767C955.545 774.774 953.347 782.269 952.289 790C951.122 798.52 949.039 807.081 946.11 815.089C944.646 819.094 943.388 823.691 939.79 826.401C932.501 831.89 919.536 830.238 911 831.286C885.667 834.397 860.536 838.217 835 840.089C824.471 840.861 814.095 840.476 804 843.754C800.415 844.918 794.159 847.05 794.662 851.907C795.037 855.523 800.002 857.481 803.089 857.87C811.729 858.961 820.462 856.908 829 855.95C843.975 854.269 859.089 853.267 874 850.806C886.504 848.742 899.201 845.477 912 845.011C918.857 844.761 931.35 839.943 937.427 844.318C942.72 848.127 938.913 859.702 938.286 865C937.424 872.281 938.799 879.748 937.791 887C936.347 897.395 933.347 907.622 932 918C924.658 917.98 918.92 915.698 911.961 914.339C901.644 912.325 891.323 910.428 881 908.221C872.06 906.309 863.032 905.445 854.089 903.745C835.434 900.197 816.913 895.622 798 893C787.329 891.521 776.865 889.202 766 890.093C762.789 890.357 755.824 891.645 754.752 895.371C753.553 899.536 760.315 900.851 763 901.525C772.727 903.966 784.033 906.354 794 906.958C804.826 907.613 814.414 910.841 825 912.679C848.853 916.822 872.358 921.151 896 926.501C905.816 928.722 923.82 928.794 930.397 937.443C933.734 941.832 931.661 949.796 932.286 955C933.907 968.512 935.958 982.607 938.468 996C949.896 1056.99 957 1119.77 957 1182L984 1182C984 1129.58 977.84 1078.24 967.334 1027C966.107 1021.02 964.049 1015.04 963.209 1009C961.469 996.48 961.283 983.602 959.715 971C958.777 963.456 955.624 952.422 958.603 945.059C961.595 937.663 977.352 942.97 983 944.373C1007.58 950.481 1032.98 953.163 1058 956.729C1065.12 957.744 1072.8 959.206 1080 958.977C1083.69 958.859 1087.05 957.33 1086.61 953.015C1086.23 949.225 1083.09 948.193 1079.99 947.119C1073.48 944.871 1066.67 944.608 1060 943.001C1035.33 937.061 1009.82 935.211 985 929.336C979.025 927.922 972.941 927.042 967.001 925.47C964.128 924.71 961.222 924.116 960.318 920.891C958.722 915.198 961.326 907.67 962.246 902C964.422 888.586 968.042 874.518 968.975 861C969.346 855.626 969.55 844.041 974.148 840.603C978.454 837.384 988.721 838.258 994 837.964C1007.66 837.204 1021.4 835.126 1035 833.83C1049.67 832.433 1064.68 829.421 1079 825.73C1083.7 824.519 1092.71 822.396 1089.4 815.394C1086.22 808.687 1072.38 814.256 1067 814.834C1044.73 817.227 1022.44 822.891 1000 822.999C994.325 823.027 977.948 826.907 975.694 819.941C974.778 817.111 976.287 813.807 976.701 811C977.776 803.694 978.519 796.317 979.579 789C981.084 778.613 983.249 768.383 984.729 758C985.381 753.426 985.31 747.165 987.938 743.21C992.303 736.641 1002.96 732.959 1010 730.316C1025.57 724.466 1041.15 718.612 1056.42 712C1071.29 705.565 1086.71 699.689 1102 694.343C1107 692.594 1114.97 689.488 1111.4 682.434C1109.83 679.333 1105.65 680.298 1103 681.041C1095.79 683.059 1089.12 686.574 1082 688.794C1063.83 694.46 1045.68 701.61 1028 708.735C1016.66 713.307 1005.24 719.441 993 721C995.494 701.407 996.808 680.931 997 661C997.042 656.623 997.878 652.362 997.985 648C998.092 643.656 997.216 638.83 1000.32 635.301C1006.03 628.798 1016.01 624.03 1023 618.845C1040.48 605.884 1058.01 593.067 1075.09 579.583C1083.81 572.7 1095.71 564.904 1099.86 554C1101.3 550.189 1101 546.001 1101 542C1072.25 537.773 1042.97 541 1014 541C1006.6 541 999.352 540.198 992 540.015C989.089 539.942 984.887 540.68 982.603 538.397C979.078 534.871 980.836 523.639 981.039 519C981.807 501.466 984.506 483.606 982.83 466C980.78 444.46 984 423.482 984 402C984 357.791 985.086 312.979 980.83 269C979.727 257.596 977.337 246.31 975.63 235C975.119 231.616 975.942 228.373 975.674 225C975.082 217.546 972.919 210.292 971.449 203C969.591 193.783 967.944 184.492 963.752 176C961.237 170.903 959.858 164.39 954.956 161.029C950.793 158.173 945.799 158.305 941 157.715C926.951 155.99 912.704 158.436 899 161.549C867.517 168.699 838.681 187.737 814.559 208.455C797.23 223.339 779.198 238.788 765.707 257.464C756.701 269.931 747.115 282.26 738.86 295.286C735.613 300.41 733.256 309.035 727.79 312.307C724.119 314.504 716.906 311.043 713 310.116C700.9 307.243 688.501 303.588 676 303.039C639.025 301.418 601.93 299.596 565 303.17C553.728 304.261 541.987 306.618 531 309.34C527.104 310.305 522.101 314.64 518.105 314.003C512.889 313.171 508.25 301.861 505.576 297.834C494.58 281.28 485.062 264.131 471.776 249.155C467.279 244.085 461.879 239.936 457.25 235.003C446.305 223.34 434.989 210.97 422 201.481C408.072 191.305 393.008 183.459 377.91 175.235C373.161 172.647 368.866 169.162 364 166.844C355.21 162.656 345.494 160.888 336.17 158.549C327.792 156.446 320.775 153.899 312 154.004C298.655 154.164 293.28 161.81 287.88 173C284.022 180.996 283.385 191.339 281.755 200C279.58 211.561 276.895 223.765 273.385 235C267.846 252.729 267.4 270.791 264.576 289C259.932 318.939 257.156 348.828 255.09 379C254.475 387.968 255.354 397.021 254.961 406C254.321 420.61 253.001 435.37 253 450C252.999 471.479 253.367 492.62 255.086 514C255.504 519.207 255.504 524.893 256.514 530C256.98 532.357 258.352 535.281 256.932 537.566C255.517 539.844 252.374 539.934 250 539.981C244.336 540.091 238.698 539 233 539C225.417 539 217.508 539.997 210 539.625C193.951 538.83 178.103 537 162 537C155.098 537 146.646 535.706 140.001 537.804C137.188 538.692 133.707 540.653 133.621 544.012C133.536 547.332 136.887 550.101 139.09 552.127C145.069 557.624 152.122 561.751 158.425 566.796C179.598 583.742 201.082 600.641 224 615.171C231.26 619.773 238.613 627.806 247 630z"/>
<path style="fill:#fcfcfc; stroke:none;" d="M595 586C606.495 589.398 622.176 587.295 634 586.17C637.181 585.867 643.756 587.227 645.953 584.258C648.047 581.427 644.5 577.591 643.545 575C641.295 568.898 642.984 563.582 648.09 559.569C654.52 554.516 662.358 554.558 670 553.83C683.633 552.532 697.319 552.56 711 551.961C717.348 551.683 723.652 550.317 730 550.039C749.313 549.194 768.677 549.807 788 548.961C793.687 548.712 799.323 547.478 805 547.089C823.385 545.83 842.593 546 861 546C882.057 546 902.972 545 924 545C929.955 545 942.665 547.384 947.427 543.258C952.256 539.073 949.63 528.669 950.17 523C952.033 503.426 952 483.685 952 464C952 414.028 954.149 363.976 951.961 314C951.111 294.605 947.892 275.218 946.104 256C944.525 239.026 940.785 222.86 938.299 206C937.568 201.042 937.339 190.111 932.683 187.028C928.12 184.006 917.914 187.102 913 188.235C894.947 192.401 878.743 199.014 863 208.907C851.196 216.325 838.951 223.291 828.054 232.17C825.268 234.44 823.282 237.405 820.679 239.849C802.47 256.939 785.883 276.194 773.439 298.015C767.848 307.818 763.604 318.083 758.208 328C752.845 337.854 746.571 347.299 741.259 357.17C736.667 365.704 733.348 378.424 724.892 384.258C718.15 388.909 712.456 383.872 711.458 377C710.823 372.631 711.412 366.284 713.035 362.17C714.567 358.284 718.474 352.39 717.268 348.059C715.992 343.477 706.988 341.393 703 340.12C687.921 335.309 672.679 334.163 657 333.089C626.559 331.005 593.99 330.423 564 336.066C555.586 337.649 546.454 337.387 538.424 340.799C535.837 341.899 531.475 343.712 530.071 346.275C528.677 348.817 530.252 351.556 531.053 354C532.397 358.1 533.965 363.627 533.781 367.961C533.589 372.472 530.572 381.443 525.085 381.443C521.219 381.443 517.548 376.635 515.303 373.996C507.694 365.053 502.625 353.06 496.654 342.961C480.908 316.329 465.618 288.191 444.549 265.22C436.077 255.984 427.577 246.337 418 238.205C412.208 233.287 403.657 228.793 400 222C391.316 219.741 384.11 211.722 376.715 206.876C364.875 199.117 351.213 192.93 338 187.949C331.845 185.629 321.934 179.184 315.29 183.028C309.731 186.244 307.534 195.144 306.591 201C303.936 217.494 302.626 234.319 300.834 251C297.37 283.243 293.459 315.572 292.039 348C290.397 385.509 292 423.451 292 461C292 480.494 292.985 500.605 294.83 520C295.325 525.194 293.007 534.55 297.434 538.397C301.103 541.586 308.493 539.704 313 540.289C327.304 542.147 341.659 542.439 356 544.05C413.387 550.496 471.494 548.69 529 554.17C539.335 555.155 549.71 555.186 560 556.17C565.402 556.686 570.631 558.466 576 558.907C583.993 559.562 594.457 561.028 597.486 570.171C599.292 575.621 596.456 580.897 595 586z"/>
<path style="fill:#0f0e0e; stroke:none;" d="M775 381C775.23 391.755 783.424 398.339 788.732 407C791.37 411.303 793.727 416.258 795.456 421C796.9 424.96 797.5 429.502 800.419 432.741C813.304 447.034 834.68 453.634 851 462.909C859.786 467.902 869.592 472.725 879.015 476.421C883.211 478.066 887.592 479.852 892 477.86C908.895 470.222 912.158 444.079 914.424 428C921.138 380.369 924 332.121 924 284C924 275.947 926.16 261.593 918.657 256.009C915.104 253.366 909.688 255.373 906.589 252.397C901.987 247.978 903.427 237.397 893.964 238.203C887.841 238.725 884.737 245.601 886.589 251C887.648 254.088 890.251 257.361 893.089 258.988C895.357 260.287 898.338 260.143 899.987 262.434C903.721 267.62 902 277.99 902 284C902 294.806 900.51 305.261 900.039 316C898.9 342.014 898.913 368.069 895.871 393.961C895.354 398.359 893.599 402.51 893.17 407C892.214 416.987 891.102 426.139 889.322 436C888.478 440.674 887.973 446.282 883.737 449.381C880.58 451.69 877.043 449.708 874 448.244C866.839 444.798 859.84 441.694 852.911 437.781C841.595 431.391 827.417 427.3 818.1 417.896C813.236 412.986 810.638 407.226 806.949 401.615C799.533 390.334 788.788 381.009 775 381M353 239C351.645 241.684 350.564 244.047 350 247C345.064 247.39 337.699 246.9 333.286 249.136C323.023 254.335 322.849 263.979 321.831 274C321.038 281.805 320 289.108 320 297C320 339.726 324.04 382.152 331.961 424.039C335.361 442.023 337.662 474.487 361 476.829C378.19 478.555 396.473 470.002 412 463.771C419.618 460.714 428.656 458.127 435.285 453.231C440.112 449.668 446.508 446.37 450.142 441.486C454.267 435.943 451.89 427.461 445.995 424.457C437.969 420.367 431.847 425.599 425.001 429.096C412.072 435.698 398.356 441.081 385 446.726C379.253 449.155 366.721 456.759 362.688 448.981C359.24 442.33 358.805 435.196 357.791 428C356.537 419.106 355.112 409.86 353.675 401C350.167 379.367 348.507 357.903 346.946 336.039C346.745 333.224 345.455 330.742 345.129 327.961C343.637 315.253 344 301.806 344 289C344 281.762 344.313 274.485 348.274 268.104C351.453 262.982 356.643 260.249 358.291 253.996C359.858 248.049 359.624 240.967 353 239M366 288C376.982 286.4 385.222 266.671 380.281 257.129C378.462 253.617 372.66 247.698 368.6 251.607C366.239 253.88 366.173 258.951 366.039 262C365.894 265.324 366 268.673 366 272L366 288M863.603 264.029C860.52 266.457 862.274 272.32 863.383 275.286C866.203 282.82 867.006 288.159 876 289.39C878.314 289.707 880.751 289.82 882.682 288.254C890.57 281.856 877.7 269.927 873.075 266.254C870.655 264.332 866.674 261.609 863.603 264.029M382 314C389.49 313.473 391.954 306.745 395.611 301.039C398.175 297.039 401.037 293.562 402.616 289C403.653 286.004 404.628 282.149 403.396 279.059C399.027 268.101 388.405 282.435 386.31 287.286C384.845 290.677 383.795 294.395 383.015 298C381.866 303.309 382 308.601 382 314M848.279 280.086C845.09 281.982 846.071 287.052 846.665 290C848.139 297.309 856.486 313.983 866.62 307.986C878.384 301.025 864.194 288.056 858.004 283.684C855.762 282.101 851.159 278.373 848.279 280.086M412 336C409.682 342.441 402.929 359.802 413 362C415.829 356.574 421.064 353.253 425.59 349.286C430.399 345.072 435.382 339.444 438.717 333.961C444.455 324.526 435.906 320.509 431.156 313.561C427.999 308.944 428.469 297.803 421.981 296.647C418.062 295.949 414.69 299.726 412 302.014C404.205 308.643 398.061 317.046 395.424 327C394.523 330.402 392.264 337.225 395.742 339.968C399.621 343.027 407.458 336.248 412 336M832.109 305.797C827.743 307.481 829.154 313.57 830.171 316.961C830.951 319.564 832.398 321.705 833.642 324.089C836.728 330.006 840.857 344.088 850 340.882C853.326 339.716 857.602 336.984 857.718 333.078C857.803 330.25 855.442 328.079 854.091 325.816C850.748 320.213 847.987 314.586 842.911 310.259C840.438 308.152 835.6 304.451 832.109 305.797M815.148 327.046C810.862 329.393 812.326 335.92 813.455 339.714C815.925 348.009 822.015 356.676 828.734 362.111C832.109 364.842 836.169 367.103 840.37 364.655C844.487 362.255 845.916 357.365 844.061 353C840.819 345.371 832.891 337.484 826.896 331.87C824.037 329.193 819.429 324.702 815.148 327.046M424 386C436.122 385.436 448.105 373.782 454.641 364.282C457.297 360.421 461.272 353.895 457.397 349.434C452.848 344.198 445.862 349.659 442.015 352.808C431.643 361.295 424.001 372.47 424 386M793.319 355.043C789.539 357.426 792.067 362.88 793.644 365.816C797.266 372.554 806.23 380.984 813.015 384.289C815.436 385.469 819.651 387.941 822.258 385.957C825.818 383.247 823.374 376.823 821.443 374C816.684 367.044 810.388 360.904 802.91 356.921C800.236 355.496 796.321 353.151 793.319 355.043M432 417C445.143 416.684 456.311 407.009 464.66 397.711C468.012 393.978 472.773 387.586 467.968 382.893C463.895 378.917 455.923 382.391 452 384.905C442.366 391.08 432.347 405.261 432 417z"/>
<path style="fill:#fcfcfc; stroke:none;" d="M790 681C801.711 680.871 807.044 674.433 816.054 668.461C837.645 654.149 854.945 632.759 871.566 613.196C877.102 606.681 883.955 600.068 886.931 591.985C888.698 587.188 889.71 583.069 884.695 579.92C872.429 572.216 857.296 586.309 849.286 594.25C831.931 611.454 812.729 627.486 799.204 647.996C794.176 655.622 786.778 662.984 787.408 672.985C787.586 675.802 789.046 678.397 790 681M794 581.478C772.564 585.767 753.801 605.487 742.63 623C737.59 630.9 733.367 650.384 749.004 648.867C756.529 648.136 762.392 642.913 768.004 638.399C774.081 633.51 779.523 628.043 785.463 623.093C791.246 618.275 797.648 613.393 801.829 606.985C805.355 601.583 820.973 583.824 806.995 581.228C805.05 580.867 802.969 580.995 801 581.001C798.656 581.008 796.309 581.017 794 581.478M424 692C430.22 694.78 435.621 698.797 442.91 697.867C452.359 696.66 459.45 688.673 466.421 683.025C484.251 668.576 499.003 651.334 514.764 634.808C522.31 626.896 529.207 616.633 532.211 606C533.456 601.597 533.799 595.074 531.142 591.109C528.446 587.085 523.3 586.297 519 588.008C510.369 591.443 501.268 598.766 494 604.5C474.607 619.799 456.756 636.512 440.657 655.231C434.67 662.192 426.256 669.771 423.859 679C422.705 683.442 423.438 687.554 424 692M428 593.439C412.264 595.892 392.344 611.949 385.099 626C381.473 633.032 373.11 649.397 387.001 650.89C388.642 651.067 390.362 651.002 392 650.826C397.7 650.216 402.033 647.387 406.985 644.815C419.187 638.477 428.992 628.75 436.189 617C440.384 610.152 447.185 594.543 433.996 593.178C431.987 592.97 429.989 593.129 428 593.439M275 744C283.551 745.472 292.252 749.976 300.17 753.407C312.519 758.757 325.539 762.713 338 767.859C365.064 779.036 393.506 787.713 420.039 799.991C431.497 805.292 443.789 808.751 454.999 814.738C457.34 815.989 466.494 820.779 462.538 824.368C459.908 826.754 453.12 824.107 450 823.564C437.796 821.439 424.405 817.117 413.17 811.923C406.569 808.871 399.756 807.174 393.001 804.688C368.948 795.832 344.59 786.94 321 776.843C312.686 773.285 304.359 769.904 296 766.504C291.121 764.519 285.478 761.426 280.019 762.163C274.263 762.94 273.156 770.215 273.015 775C272.632 788.075 274 800.97 274 814C274 818.115 272.142 828.049 276.318 830.486C279.272 832.21 283.695 832.059 287 832.589C297.953 834.349 309.016 833.937 320 835.286C355.301 839.622 391.176 841.461 425.985 848.34C429.55 849.045 432.421 851.287 436 852C434.93 868.621 411.424 862.905 400 860.755C397.635 860.31 395.403 859.399 393 859.129C388.664 858.642 384.342 859.086 380 858.41C363.997 855.917 348.095 853.835 332 851.718C321.35 850.318 310.751 848.005 300 848C294.13 847.997 288.775 846.475 283 846.091C281.036 845.96 278.259 845.717 276.603 847.028C274.247 848.893 274.65 854.272 274.281 856.999C273.674 861.477 271.897 865.556 271.29 870.004C270.703 874.313 271.226 878.682 270.715 883C269.734 891.285 267.403 899.69 267.039 908C266.911 910.939 266.457 915.107 268.179 917.682C270.532 921.201 275.585 919.339 279 919.089C288.761 918.374 298.859 917.392 308.285 914.71C311.768 913.719 315.422 914.109 318.961 913.37C331.625 910.727 344.236 908.117 357 905.739C379.784 901.495 402.158 896.804 425 892.919C436.253 891.005 447.575 889.29 459 889.015C464.723 888.877 470.141 888.74 472 895C464.948 896.672 459.297 901.77 452 903.497C408.359 913.823 363.638 917.714 320 927.765C308.075 930.511 295.155 931.937 283 933.728C277.809 934.493 270.483 934.134 266.314 937.769C262.736 940.888 262.567 947.706 261.051 952C257.07 963.272 253.87 974.982 249.24 986C238.977 1010.42 221.6 1029.6 200.41 1045.29C185.401 1056.41 170.433 1068 155.195 1078.76C147.068 1084.49 137.901 1089.64 130.263 1096.03C119.269 1105.21 109.193 1115.44 98.4853 1124.96C95.5279 1127.58 91.9592 1129.34 89.0895 1132.1C80.0419 1140.79 72.2743 1150.82 63.8549 1160.09C57.4848 1167.1 50.0358 1173.2 46 1182L957 1182C957 1119.42 949.961 1056.34 938.468 995C935.958 981.607 933.907 967.512 932.286 954C931.675 948.916 933.761 940.86 930.397 936.63C927.389 932.85 922.421 931.993 918 930.989C910.694 929.33 903.276 928.028 896 926.258C872.813 920.617 849.474 916.756 826 912.679C815.084 910.783 805.096 907.945 794 906.896C783.956 905.946 772.775 903.903 763 901.265C760.606 900.618 754.077 899.141 755.346 895.371C756.469 892.031 763.002 890.56 766 890.185C776.989 888.813 788.198 891.714 799 893.271C817.25 895.902 835.163 900.219 853.17 903.745C862.067 905.486 871.093 906.316 880 908.221C890.34 910.432 900.641 912.36 910.985 914.339C918.304 915.74 924.294 917.995 932 918C934.008 907.791 936.931 897.381 937.896 887C938.575 879.691 937.454 872.301 938.424 865C939.08 860.064 942.645 848.088 938.107 844.318C936.211 842.744 933.295 843.005 930.999 843.002C924.57 842.991 918.4 844.756 912 844.989C898.839 845.468 885.86 848.683 873 850.806C858.416 853.213 843.628 854.094 829 855.845C820.702 856.838 811.444 859.33 803.089 857.737C800.302 857.205 795.565 855.165 795.175 851.907C794.607 847.161 801.582 844.863 805 843.754C815.88 840.222 827.609 840.599 839 839.964C863.487 838.601 887.737 834.266 912 831.286C920.286 830.269 933.692 832 940.62 826.401C947.374 820.942 947.768 809.641 949.704 802.039C952.47 791.187 954.903 780.172 956.424 769C956.886 765.602 958.431 758.571 955.258 756.029C952.136 753.528 947.807 756.443 944.83 757.61C935.685 761.196 926.214 764.034 917 767.471C908.434 770.665 899.578 772.786 891 775.974C862.259 786.654 833.69 797.888 805 808.705C793.765 812.942 782.364 816.964 771 820.86C767.176 822.171 761.472 824.289 759.647 818.941C757.603 812.955 764.281 808.545 769 806.985C784.821 801.753 800.029 793.49 816 789.045C823.754 786.886 831.404 783.134 839 780.309C864.411 770.858 889.394 759.603 915 750.759C926.205 746.889 937.238 742.671 948 737.664C952.29 735.668 957.307 734.528 960.436 730.674C963.186 727.287 962.581 723.01 963.258 719C964.508 711.597 965.446 704.448 966.424 697C967.826 686.331 968.812 675.702 969.83 665C970.132 661.826 971.128 655.269 968.972 652.607C965.767 648.65 959.049 654.601 956 656.053C947.454 660.123 939.98 665.765 932 670.816C928.092 673.29 923.842 675.004 920.17 677.863C909.676 686.035 898.845 693.556 888 701.167C880.723 706.274 872.684 712.885 864 715.451C854.357 718.302 841.038 716 831 716C803.295 716 775.656 714.172 748 712.961C744.452 712.805 739.378 712.667 736.259 710.826C732.415 708.556 729.311 703.42 726.552 699.996C720.084 691.971 713.933 683.813 708.143 675.286C699.066 661.918 691.098 648.114 681.837 634.911C678.285 629.846 676.079 622.773 670.675 619.275C664.925 615.552 657.533 615.548 651 614.714C645.974 614.073 641.036 612.674 636 612.171C620.47 610.618 602.974 612.544 588 616.729C582.513 618.263 575.824 619.3 571.275 622.966C566.924 626.472 563.928 633.328 560.914 638.001C554.542 647.88 547.749 657.329 541.32 667.089C532.248 680.865 525.087 695.217 513.586 707.209C509.536 711.432 506.221 717.638 500 718.772C489.015 720.774 476.166 719 465 719C445.717 719 426.354 720 407 720C395.435 720 379.481 722.907 369 717.406C356.411 710.798 345.407 701.328 333.83 693.139C323.425 685.779 312.196 679.739 302 672.059C295.946 667.498 289.616 663.592 283.015 659.906C281.252 658.922 278.343 656.294 276.148 656.878C274.054 657.436 274.11 660.32 274.015 662.005C273.735 667.026 273.008 671.96 273 677C272.981 688.704 273.943 700.361 273.999 712C274.05 722.582 273.063 733.564 275 744z"/>
<path style="fill:#0f0e0e; stroke:none;" d="M673 782C663.691 781.808 654.326 779.728 645 779.089C623.135 777.592 600.897 777.551 579 777.015C571.866 776.84 562.969 775.698 556.005 777.303C552.646 778.077 550.067 780.428 550.188 784.039C550.435 791.389 558.22 799.408 563.024 804.428C572.65 814.487 581.878 825.378 590.964 835.959C596.053 841.886 605.188 850.368 600.686 858.961C598.234 863.641 593.383 867.234 589.784 870.999C574.056 887.454 542.704 902.18 521 888.122C514.758 884.079 510.546 877.975 506.929 871.665C504.374 867.208 502.06 862.138 501.264 857C499.604 846.289 508.537 832.869 515.378 825.424C519.304 821.152 524.843 817.189 527.544 811.961C531.435 804.428 524.451 801.462 518 803.893C511.138 806.478 504.922 813.35 500.344 818.855C496.707 823.229 493.013 827.055 490.789 832.424C485.468 845.27 487.15 857.873 489.625 871C490.718 876.798 491.26 881.742 494.39 887C499.151 894.999 506.903 900.897 515 905.204C534.865 915.77 560.488 915.3 579.424 902.637C585.189 898.781 591.437 894.935 596.425 890.116C599.176 887.458 602.92 882.656 607 882.353C609.366 882.177 611.605 883.621 614 883.603C616.718 883.581 619.266 882.057 622 882.846C626.913 884.265 630.906 889.771 635 892.699C642.658 898.177 652.178 902.973 661 906.239C668.529 909.026 676.885 911.427 685 910.91C713.718 909.08 746.346 881.951 742.871 851C741.059 834.855 733.659 819.139 720 810.134C715.578 807.219 701.359 802.064 698.698 810.144C697.556 813.611 700.439 816.818 702.461 819.246C707.369 825.14 713.58 830.013 718.159 836.174C730.275 852.474 721.328 869.994 708.883 882.547C687.757 903.857 656.108 890.369 638 872.17C633.849 867.998 621.923 860.904 622.907 854C623.308 851.186 626.117 848.932 627.986 847.039C632.063 842.911 635.609 838.401 639.661 834.255C645.26 828.524 649.795 821.393 654.865 815.17C662.424 805.892 672.858 794.74 673 782z"/>
<path style="fill:#fcfcfc; stroke:none;" d="M618 832C621.617 824.232 629.393 816.865 634.779 810.089C636.955 807.351 641.361 803.662 641.574 799.924C641.896 794.278 633.563 795.002 630 795C618.632 794.995 607.309 794.018 596 794C592.934 793.995 586.186 792.776 584.622 796.318C582.367 801.424 589.812 807.298 592.561 810.715C595.573 814.459 598.436 818.082 601.745 821.576C607.273 827.414 609.347 831.922 618 832z"/>
<path style="fill:#0f0e0e; stroke:none;" d="M536 839C535.188 839.027 533.815 838.93 532.948 839.148C526.061 840.881 533.007 847.957 535.682 841.932C536.023 841.165 535.944 839.708 536 839M570 841L570 844L573 844L573 841L570 841M695 841L695 844L698 844L698 841L695 841M661 855L667 855L667 850C663.136 850.3 661.652 851.089 661 855M550 862L550 867C553.844 865.723 553.844 863.277 550 862M683 865C683.301 868.952 684.118 870.822 688 872C688.862 867.354 687.811 865.384 683 865M658 955C659.473 951.524 666.963 944.642 663.957 940.742C661.052 936.975 651.734 941.517 648.576 943.294C633.413 951.826 618.514 955.983 601.039 952.907C593.545 951.587 584.671 946.322 579.039 941.424C575.776 938.586 571.876 934.241 567.149 937.029C562.363 939.85 565.577 945.386 567.916 948.714C573.081 956.063 583.47 963.11 592 965.987C610.607 972.261 627.85 969.659 645.985 962.438C650.595 960.602 653.166 956.365 658 955z"/>
</svg>
