<?xml version="1.0" standalone="yes"?>
<svg xmlns="http://www.w3.org/2000/svg" width="53" height="51">
<path style="fill:#f9f9f9; stroke:none;" d="M0 0L0 51L53 51L53 0L0 0z"/>
<path style="fill:#1b1b1b; stroke:none;" d="M25 48L25 31L20 31L20 27L25 27C25.0662 19.6893 27.1327 15.2555 35 15L35 18C29.2479 18.4587 29.0466 21.8588 29 27L35 27C33.4436 29.8496 32.2071 30.5031 29 31L29 48C35.6781 46.6032 41.7285 43.9619 45.5208 37.9606C54.6876 23.4546 44.2523 4.02932 27 4.02932C9.74774 4.02932 -0.687616 23.4546 8.47917 37.9606C12.2715 43.9619 18.3219 46.6032 25 48z"/>
<path style="fill:#f9f9f9; stroke:none;" d="M23 45L23 33L18 33L18 25L23 25C23.2281 15.5635 28.2786 13.0067 37 13L37 20L31 20L31 25L37 25L36 33L31 33L31 45C54.1772 40.8174 50.3031 6.0787 27 6.0787C3.69773 6.0787 -0.143753 40.8234 23 45z"/>
</svg>
