<?xml version="1.0" standalone="yes"?>
<svg xmlns="http://www.w3.org/2000/svg" width="58" height="57">
<path style="fill:#fbfbfb; stroke:none;" d="M0 0L0 57L58 57L58 0L0 0z"/>
<path style="fill:#131313; stroke:none;" d="M18 6.53318C6.45252 9.34455 7.99643 21.7413 8 31C8.00182 35.7288 7.72878 40.8784 10.7029 44.892C16.1688 52.2682 33.9156 51.4351 42 49.4668C53.5475 46.6554 52.0036 34.2587 52 25C51.9982 20.2712 52.2712 15.1216 49.2971 11.108C43.8312 3.73183 26.0844 4.56493 18 6.53318z"/>
<path style="fill:#fbfbfb; stroke:none;" d="M18.0008 8.57253C7.87618 11.4957 9.98693 23.8689 10 32C10.0066 36.0848 9.79538 40.4908 12.5139 43.8665C17.5344 50.1007 34.8723 49.4852 41.9992 47.4275C52.1238 44.5043 50.0131 32.1311 50 24C49.9934 19.9152 50.2046 15.5092 47.4861 12.1335C42.4656 5.89929 25.1277 6.51485 18.0008 8.57253z"/>
<path style="fill:#131313; stroke:none;" d="M41 14L40 15L40 17L41 18L43 18L44 17L44 15L43 14L41 14M27.0008 17.5764C13.4927 21.3086 19.4703 42.1616 32.9992 38.4236C46.5073 34.6914 40.5297 13.8384 27.0008 17.5764z"/>
<path style="fill:#fbfbfb; stroke:none;" d="M27.0154 19.7461C16.3864 23.7849 22.4661 40.2506 32.9846 36.2539C43.6136 32.2151 37.5339 15.7494 27.0154 19.7461z"/>
</svg>
