<?xml version="1.0" standalone="yes"?>
<svg xmlns="http://www.w3.org/2000/svg" width="60" height="61">
<path style="fill:#fbfbfb; stroke:none;" d="M0 0L0 61L60 61L60 0L0 0z"/>
<path style="fill:#222222; stroke:none;" d="M13.2284 9.74228C9.99855 11.2511 10.0468 14.9262 10.0039 18C9.90606 24.997 9.9973 32.0023 10 39C10.0011 41.9448 9.40947 45.9953 11.179 48.5664C13.0904 51.3435 17.0467 50.9837 20 50.9992L39 51C42.0303 50.9998 45.944 51.5786 48.7716 50.2577C52.0014 48.749 51.9532 45.0738 51.9961 42C52.0939 35.003 52.0027 27.9977 52 21C51.9989 18.0552 52.5905 14.0047 50.821 11.4336C48.9096 8.65647 44.9533 9.01635 42 9.00077L23 9C19.9697 9.00019 16.056 8.42142 13.2284 9.74228z"/>
<path style="fill:#fbfbfb; stroke:none;" d="M13.6034 12.0278C10.1709 14.7464 12 25.0625 12 29C12 33.5131 10.1049 43.7062 13.0278 47.3966C14.7448 49.5645 18.5803 48.995 21 49L40 49C42.4692 48.9989 46.3106 49.6244 48.3966 47.9722C51.8291 45.2536 50 34.9375 50 31C50 26.4869 51.8951 16.2938 48.9722 12.6034C47.2552 10.4355 43.4197 11.005 41 11L22 11C19.5308 11.0011 15.6894 10.3756 13.6034 12.0278z"/>
<path style="fill:#222222; stroke:none;" d="M31 15C31 20.6102 31.4323 26.4109 30.9414 31.9992C30.7705 33.9443 30.3074 36.9249 27.9298 37.3688C23.1574 38.2599 27.3444 32.8638 29 32L29 26C26.9245 26.1136 24.9222 26.154 23.0394 27.179C10.3729 34.075 25.0632 52.4692 34.5664 41.7716C35.782 40.4032 36.4452 38.7809 36.7716 36.9992C37.3608 33.7834 37 30.2586 37 27C39.4181 27.7224 41.4717 27.9481 44 28C43.7986 21.94 39.4322 20.1021 37 15L31 15z"/>
<path style="fill:#fbfbfb; stroke:none;" d="M33 17C33 22.6439 34.7608 31.8874 31.9722 36.9406C29.8319 40.8191 23.6258 41.2459 22.9205 35.9954C22.5414 33.1727 25.7786 30.3482 27 28C25.6441 28.4724 24.2869 28.7311 23.1836 29.7415C14.6435 37.5624 28.4366 48.4557 33.821 38.8912C34.6673 37.3879 34.8503 35.6871 34.956 34C35.1844 30.3562 35 26.6506 35 23C37.3604 24.3126 39.3907 25.3413 42 26C40.7368 22.4151 37.3512 20.0106 35 17L33 17z"/>
</svg>
